%TF.GenerationSoftware,KiCad,Pcbnew,8.0.1-8.0.1-0~ubuntu23.10.1*%
%TF.CreationDate,2024-04-17T17:53:06-04:00*%
%TF.ProjectId,Bitstream_Evolution_Filterboard,42697473-7472-4656-916d-5f45766f6c75,rev?*%
%TF.SameCoordinates,Original*%
%TF.FileFunction,Drillmap*%
%TF.FilePolarity,Positive*%
%FSLAX45Y45*%
G04 Gerber Fmt 4.5, Leading zero omitted, Abs format (unit mm)*
G04 Created by KiCad (PCBNEW 8.0.1-8.0.1-0~ubuntu23.10.1) date 2024-04-17 17:53:06*
%MOMM*%
%LPD*%
G01*
G04 APERTURE LIST*
%ADD10C,0.200000*%
G04 APERTURE END LIST*
D10*
X6050000Y-6819000D02*
X16100000Y-6819000D01*
X16100000Y-14419000D01*
X6050000Y-14419000D01*
X6050000Y-6819000D01*
X6300777Y-14740484D02*
X6300777Y-14540484D01*
X6300777Y-14540484D02*
X6348396Y-14540484D01*
X6348396Y-14540484D02*
X6376967Y-14550008D01*
X6376967Y-14550008D02*
X6396015Y-14569055D01*
X6396015Y-14569055D02*
X6405539Y-14588103D01*
X6405539Y-14588103D02*
X6415062Y-14626198D01*
X6415062Y-14626198D02*
X6415062Y-14654769D01*
X6415062Y-14654769D02*
X6405539Y-14692865D01*
X6405539Y-14692865D02*
X6396015Y-14711912D01*
X6396015Y-14711912D02*
X6376967Y-14730960D01*
X6376967Y-14730960D02*
X6348396Y-14740484D01*
X6348396Y-14740484D02*
X6300777Y-14740484D01*
X6500777Y-14740484D02*
X6500777Y-14607150D01*
X6500777Y-14645246D02*
X6510301Y-14626198D01*
X6510301Y-14626198D02*
X6519824Y-14616674D01*
X6519824Y-14616674D02*
X6538872Y-14607150D01*
X6538872Y-14607150D02*
X6557920Y-14607150D01*
X6624586Y-14740484D02*
X6624586Y-14607150D01*
X6624586Y-14540484D02*
X6615062Y-14550008D01*
X6615062Y-14550008D02*
X6624586Y-14559531D01*
X6624586Y-14559531D02*
X6634110Y-14550008D01*
X6634110Y-14550008D02*
X6624586Y-14540484D01*
X6624586Y-14540484D02*
X6624586Y-14559531D01*
X6748396Y-14740484D02*
X6729348Y-14730960D01*
X6729348Y-14730960D02*
X6719824Y-14711912D01*
X6719824Y-14711912D02*
X6719824Y-14540484D01*
X6853158Y-14740484D02*
X6834110Y-14730960D01*
X6834110Y-14730960D02*
X6824586Y-14711912D01*
X6824586Y-14711912D02*
X6824586Y-14540484D01*
X7081729Y-14740484D02*
X7081729Y-14540484D01*
X7081729Y-14540484D02*
X7148396Y-14683341D01*
X7148396Y-14683341D02*
X7215062Y-14540484D01*
X7215062Y-14540484D02*
X7215062Y-14740484D01*
X7396015Y-14740484D02*
X7396015Y-14635722D01*
X7396015Y-14635722D02*
X7386491Y-14616674D01*
X7386491Y-14616674D02*
X7367443Y-14607150D01*
X7367443Y-14607150D02*
X7329348Y-14607150D01*
X7329348Y-14607150D02*
X7310301Y-14616674D01*
X7396015Y-14730960D02*
X7376967Y-14740484D01*
X7376967Y-14740484D02*
X7329348Y-14740484D01*
X7329348Y-14740484D02*
X7310301Y-14730960D01*
X7310301Y-14730960D02*
X7300777Y-14711912D01*
X7300777Y-14711912D02*
X7300777Y-14692865D01*
X7300777Y-14692865D02*
X7310301Y-14673817D01*
X7310301Y-14673817D02*
X7329348Y-14664293D01*
X7329348Y-14664293D02*
X7376967Y-14664293D01*
X7376967Y-14664293D02*
X7396015Y-14654769D01*
X7491253Y-14607150D02*
X7491253Y-14807150D01*
X7491253Y-14616674D02*
X7510301Y-14607150D01*
X7510301Y-14607150D02*
X7548396Y-14607150D01*
X7548396Y-14607150D02*
X7567443Y-14616674D01*
X7567443Y-14616674D02*
X7576967Y-14626198D01*
X7576967Y-14626198D02*
X7586491Y-14645246D01*
X7586491Y-14645246D02*
X7586491Y-14702388D01*
X7586491Y-14702388D02*
X7576967Y-14721436D01*
X7576967Y-14721436D02*
X7567443Y-14730960D01*
X7567443Y-14730960D02*
X7548396Y-14740484D01*
X7548396Y-14740484D02*
X7510301Y-14740484D01*
X7510301Y-14740484D02*
X7491253Y-14730960D01*
X7672205Y-14721436D02*
X7681729Y-14730960D01*
X7681729Y-14730960D02*
X7672205Y-14740484D01*
X7672205Y-14740484D02*
X7662682Y-14730960D01*
X7662682Y-14730960D02*
X7672205Y-14721436D01*
X7672205Y-14721436D02*
X7672205Y-14740484D01*
X7672205Y-14616674D02*
X7681729Y-14626198D01*
X7681729Y-14626198D02*
X7672205Y-14635722D01*
X7672205Y-14635722D02*
X7662682Y-14626198D01*
X7662682Y-14626198D02*
X7672205Y-14616674D01*
X7672205Y-14616674D02*
X7672205Y-14635722D01*
M02*
