%TF.GenerationSoftware,KiCad,Pcbnew,8.0.1-8.0.1-0~ubuntu23.10.1*%
%TF.CreationDate,2024-04-17T17:53:01-04:00*%
%TF.ProjectId,Bitstream_Evolution_Filterboard,42697473-7472-4656-916d-5f45766f6c75,rev?*%
%TF.SameCoordinates,Original*%
%TF.FileFunction,Copper,L2,Bot*%
%TF.FilePolarity,Positive*%
%FSLAX46Y46*%
G04 Gerber Fmt 4.6, Leading zero omitted, Abs format (unit mm)*
G04 Created by KiCad (PCBNEW 8.0.1-8.0.1-0~ubuntu23.10.1) date 2024-04-17 17:53:01*
%MOMM*%
%LPD*%
G01*
G04 APERTURE LIST*
%TA.AperFunction,ComponentPad*%
%ADD10C,1.600000*%
%TD*%
%TA.AperFunction,ComponentPad*%
%ADD11R,1.700000X1.700000*%
%TD*%
%TA.AperFunction,ComponentPad*%
%ADD12O,1.700000X1.700000*%
%TD*%
%TA.AperFunction,ComponentPad*%
%ADD13C,1.400000*%
%TD*%
%TA.AperFunction,ComponentPad*%
%ADD14O,1.400000X1.400000*%
%TD*%
%TA.AperFunction,Conductor*%
%ADD15C,1.000000*%
%TD*%
G04 APERTURE END LIST*
D10*
%TO.P,C1,1*%
%TO.N,/Output*%
X101000000Y-91940000D03*
%TO.P,C1,2*%
%TO.N,GND*%
X101000000Y-96940000D03*
%TD*%
D11*
%TO.P,J5,1,Pin_1*%
%TO.N,GND*%
X107500000Y-96980000D03*
D12*
%TO.P,J5,2,Pin_2*%
%TO.N,/Output*%
X107500000Y-94440000D03*
%TD*%
D11*
%TO.P,J1,1,Pin_1*%
%TO.N,unconnected-(J1-Pin_1-Pad1)*%
X68750000Y-76730000D03*
D12*
%TO.P,J1,2,Pin_2*%
%TO.N,unconnected-(J1-Pin_2-Pad2)*%
X68750000Y-79270000D03*
%TO.P,J1,3,Pin_3*%
%TO.N,unconnected-(J1-Pin_3-Pad3)*%
X68750000Y-81810000D03*
%TO.P,J1,4,Pin_4*%
%TO.N,unconnected-(J1-Pin_4-Pad4)*%
X68750000Y-84350000D03*
%TO.P,J1,5,Pin_5*%
%TO.N,unconnected-(J1-Pin_5-Pad5)*%
X68750000Y-86890000D03*
%TO.P,J1,6,Pin_6*%
%TO.N,unconnected-(J1-Pin_6-Pad6)*%
X68750000Y-89430000D03*
%TO.P,J1,7,Pin_7*%
%TO.N,unconnected-(J1-Pin_7-Pad7)*%
X68750000Y-91970000D03*
%TO.P,J1,8,Pin_8*%
%TO.N,unconnected-(J1-Pin_8-Pad8)*%
X68750000Y-94510000D03*
%TO.P,J1,9,Pin_9*%
%TO.N,unconnected-(J1-Pin_9-Pad9)*%
X68750000Y-97050000D03*
%TO.P,J1,10,Pin_10*%
%TO.N,unconnected-(J1-Pin_10-Pad10)*%
X68750000Y-99590000D03*
%TO.P,J1,11,Pin_11*%
%TO.N,unconnected-(J1-Pin_11-Pad11)*%
X68750000Y-102130000D03*
%TO.P,J1,12,Pin_12*%
%TO.N,unconnected-(J1-Pin_12-Pad12)*%
X68750000Y-104670000D03*
%TO.P,J1,13,Pin_13*%
%TO.N,unconnected-(J1-Pin_13-Pad13)*%
X68750000Y-107210000D03*
%TO.P,J1,14,Pin_14*%
%TO.N,GND*%
X68750000Y-109750000D03*
%TO.P,J1,15,Pin_15*%
%TO.N,unconnected-(J1-Pin_15-Pad15)*%
X68750000Y-112290000D03*
%TD*%
D11*
%TO.P,J6,1,Pin_1*%
%TO.N,unconnected-(J6-Pin_1-Pad1)*%
X116500000Y-113790000D03*
D12*
%TO.P,J6,2,Pin_2*%
%TO.N,unconnected-(J6-Pin_2-Pad2)*%
X116500000Y-116330000D03*
%TO.P,J6,3,Pin_3*%
%TO.N,unconnected-(J6-Pin_3-Pad3)*%
X116500000Y-118870000D03*
%TO.P,J6,4,Pin_4*%
%TO.N,unconnected-(J6-Pin_4-Pad4)*%
X116500000Y-121410000D03*
%TO.P,J6,5,Pin_5*%
%TO.N,unconnected-(J6-Pin_5-Pad5)*%
X116500000Y-123950000D03*
%TO.P,J6,6,Pin_6*%
%TO.N,unconnected-(J6-Pin_6-Pad6)*%
X116500000Y-126490000D03*
%TO.P,J6,7,Pin_7*%
%TO.N,unconnected-(J6-Pin_7-Pad7)*%
X116500000Y-129030000D03*
%TO.P,J6,8,Pin_8*%
%TO.N,unconnected-(J6-Pin_8-Pad8)*%
X116500000Y-131570000D03*
%TO.P,J6,9,Pin_9*%
%TO.N,unconnected-(J6-Pin_9-Pad9)*%
X116500000Y-134110000D03*
%TO.P,J6,10,Pin_10*%
%TO.N,unconnected-(J6-Pin_10-Pad10)*%
X116500000Y-136650000D03*
%TD*%
D11*
%TO.P,J3,1,Pin_1*%
%TO.N,/Input*%
X116250000Y-74920000D03*
D12*
%TO.P,J3,2,Pin_2*%
%TO.N,unconnected-(J3-Pin_2-Pad2)*%
X116250000Y-77460000D03*
%TO.P,J3,3,Pin_3*%
%TO.N,unconnected-(J3-Pin_3-Pad3)*%
X116250000Y-80000000D03*
%TO.P,J3,4,Pin_4*%
%TO.N,unconnected-(J3-Pin_4-Pad4)*%
X116250000Y-82540000D03*
%TO.P,J3,5,Pin_5*%
%TO.N,unconnected-(J3-Pin_5-Pad5)*%
X116250000Y-85080000D03*
%TO.P,J3,6,Pin_6*%
%TO.N,unconnected-(J3-Pin_6-Pad6)*%
X116250000Y-87620000D03*
%TO.P,J3,7,Pin_7*%
%TO.N,unconnected-(J3-Pin_7-Pad7)*%
X116250000Y-90160000D03*
%TO.P,J3,8,Pin_8*%
%TO.N,unconnected-(J3-Pin_8-Pad8)*%
X116250000Y-92700000D03*
%TO.P,J3,9,Pin_9*%
%TO.N,GND*%
X116250000Y-95240000D03*
%TO.P,J3,10,Pin_10*%
%TO.N,unconnected-(J3-Pin_10-Pad10)*%
X116250000Y-97780000D03*
%TD*%
D11*
%TO.P,J2,1,Pin_1*%
%TO.N,unconnected-(J2-Pin_1-Pad1)*%
X84000000Y-112230000D03*
D12*
%TO.P,J2,2,Pin_2*%
%TO.N,unconnected-(J2-Pin_2-Pad2)*%
X84000000Y-109690000D03*
%TO.P,J2,3,Pin_3*%
%TO.N,unconnected-(J2-Pin_3-Pad3)*%
X84000000Y-107150000D03*
%TO.P,J2,4,Pin_4*%
%TO.N,unconnected-(J2-Pin_4-Pad4)*%
X84000000Y-104610000D03*
%TO.P,J2,5,Pin_5*%
%TO.N,/Output*%
X84000000Y-102070000D03*
%TO.P,J2,6,Pin_6*%
%TO.N,unconnected-(J2-Pin_6-Pad6)*%
X84000000Y-99530000D03*
%TO.P,J2,7,Pin_7*%
%TO.N,unconnected-(J2-Pin_7-Pad7)*%
X84000000Y-96990000D03*
%TO.P,J2,8,Pin_8*%
%TO.N,unconnected-(J2-Pin_8-Pad8)*%
X84000000Y-94450000D03*
%TO.P,J2,9,Pin_9*%
%TO.N,unconnected-(J2-Pin_9-Pad9)*%
X84000000Y-91910000D03*
%TO.P,J2,10,Pin_10*%
%TO.N,unconnected-(J2-Pin_10-Pad10)*%
X84000000Y-89370000D03*
%TO.P,J2,11,Pin_11*%
%TO.N,unconnected-(J2-Pin_11-Pad11)*%
X84000000Y-86830000D03*
%TO.P,J2,12,Pin_12*%
%TO.N,unconnected-(J2-Pin_12-Pad12)*%
X84000000Y-84290000D03*
%TO.P,J2,13,Pin_13*%
%TO.N,unconnected-(J2-Pin_13-Pad13)*%
X84000000Y-81750000D03*
%TO.P,J2,14,Pin_14*%
%TO.N,unconnected-(J2-Pin_14-Pad14)*%
X84000000Y-79210000D03*
%TO.P,J2,15,Pin_15*%
%TO.N,unconnected-(J2-Pin_15-Pad15)*%
X84000000Y-76670000D03*
%TD*%
D11*
%TO.P,J4,1,Pin_1*%
%TO.N,unconnected-(J4-Pin_1-Pad1)*%
X141500000Y-97720000D03*
D12*
%TO.P,J4,2,Pin_2*%
%TO.N,GND*%
X141500000Y-95180000D03*
%TO.P,J4,3,Pin_3*%
%TO.N,unconnected-(J4-Pin_3-Pad3)*%
X141500000Y-92640000D03*
%TO.P,J4,4,Pin_4*%
%TO.N,unconnected-(J4-Pin_4-Pad4)*%
X141500000Y-90100000D03*
%TO.P,J4,5,Pin_5*%
%TO.N,unconnected-(J4-Pin_5-Pad5)*%
X141500000Y-87560000D03*
%TO.P,J4,6,Pin_6*%
%TO.N,unconnected-(J4-Pin_6-Pad6)*%
X141500000Y-85020000D03*
%TO.P,J4,7,Pin_7*%
%TO.N,unconnected-(J4-Pin_7-Pad7)*%
X141500000Y-82480000D03*
%TO.P,J4,8,Pin_8*%
%TO.N,unconnected-(J4-Pin_8-Pad8)*%
X141500000Y-79940000D03*
%TO.P,J4,9,Pin_9*%
%TO.N,unconnected-(J4-Pin_9-Pad9)*%
X141500000Y-77400000D03*
%TO.P,J4,10,Pin_10*%
%TO.N,unconnected-(J4-Pin_10-Pad10)*%
X141500000Y-74860000D03*
%TD*%
D13*
%TO.P,R1,1*%
%TO.N,/Input*%
X101560000Y-86940000D03*
D14*
%TO.P,R1,2*%
%TO.N,/Output*%
X93940000Y-86940000D03*
%TD*%
D15*
%TO.N,/Output*%
X84000000Y-102070000D02*
X84070000Y-102000000D01*
X84070000Y-102000000D02*
X90500000Y-102000000D01*
X90500000Y-102000000D02*
X90500000Y-95570000D01*
X90500000Y-95570000D02*
X93440000Y-92630000D01*
%TO.N,GND*%
X101000000Y-96940000D02*
X101000000Y-112250000D01*
X95250000Y-118000000D02*
X80250000Y-118000000D01*
X101000000Y-112250000D02*
X95250000Y-118000000D01*
X80250000Y-118000000D02*
X72000000Y-109750000D01*
X72000000Y-109750000D02*
X68750000Y-109750000D01*
X107500000Y-96980000D02*
X101040000Y-96980000D01*
X101040000Y-96980000D02*
X101000000Y-96940000D01*
%TO.N,/Output*%
X94130000Y-91940000D02*
X101000000Y-91940000D01*
X93440000Y-92630000D02*
X94130000Y-91940000D01*
X93940000Y-92130000D02*
X93940000Y-86940000D01*
X105000000Y-91940000D02*
X107500000Y-94440000D01*
X93440000Y-92630000D02*
X93940000Y-92130000D01*
X101000000Y-91940000D02*
X105000000Y-91940000D01*
%TO.N,GND*%
X111210000Y-96980000D02*
X113010000Y-95180000D01*
X107500000Y-96980000D02*
X111210000Y-96980000D01*
X141440000Y-95240000D02*
X141500000Y-95180000D01*
X113010000Y-95180000D02*
X116250000Y-95180000D01*
X116250000Y-95240000D02*
X141440000Y-95240000D01*
%TO.N,/Input*%
X101560000Y-86940000D02*
X113640000Y-74860000D01*
X113640000Y-74860000D02*
X116250000Y-74860000D01*
%TD*%
M02*
