M48
; DRILL file {KiCad 8.0.1-8.0.1-0~ubuntu23.10.1} date 2024-04-17T16:39:06-0400
; FORMAT={-:-/ absolute / inch / decimal}
; #@! TF.CreationDate,2024-04-17T16:39:06-04:00
; #@! TF.GenerationSoftware,Kicad,Pcbnew,8.0.1-8.0.1-0~ubuntu23.10.1
; #@! TF.FileFunction,Plated,1,2,PTH
FMAT,2
INCH
; #@! TA.AperFunction,Plated,PTH,ComponentDrill
T1C0.0276
; #@! TA.AperFunction,Plated,PTH,ComponentDrill
T2C0.0315
; #@! TA.AperFunction,Plated,PTH,ComponentDrill
T3C0.0394
%
G90
G05
T1
X3.6984Y-3.4228
X3.9984Y-3.4228
T2
X3.9764Y-3.6197
X3.9764Y-3.8165
T3
X2.7067Y-3.0209
X2.7067Y-3.1209
X2.7067Y-3.2209
X2.7067Y-3.3209
X2.7067Y-3.4209
X2.7067Y-3.5209
X2.7067Y-3.6209
X2.7067Y-3.7209
X2.7067Y-3.8209
X2.7067Y-3.9209
X2.7067Y-4.0209
X2.7067Y-4.1209
X2.7067Y-4.2209
X2.7067Y-4.3209
X2.7067Y-4.4209
X3.3071Y-3.0185
X3.3071Y-3.1185
X3.3071Y-3.2185
X3.3071Y-3.3185
X3.3071Y-3.4185
X3.3071Y-3.5185
X3.3071Y-3.6185
X3.3071Y-3.7185
X3.3071Y-3.8185
X3.3071Y-3.9185
X3.3071Y-4.0185
X3.3071Y-4.1185
X3.3071Y-4.2185
X3.3071Y-4.3185
X3.3071Y-4.4185
X4.2323Y-3.7181
X4.2323Y-3.8181
X4.5768Y-2.9496
X4.5768Y-3.0496
X4.5768Y-3.1496
X4.5768Y-3.2496
X4.5768Y-3.3496
X4.5768Y-3.4496
X4.5768Y-3.5496
X4.5768Y-3.6496
X4.5768Y-3.7496
X4.5768Y-3.8496
X4.5866Y-4.4799
X4.5866Y-4.5799
X4.5866Y-4.6799
X4.5866Y-4.7799
X4.5866Y-4.8799
X4.5866Y-4.9799
X4.5866Y-5.0799
X4.5866Y-5.1799
X4.5866Y-5.2799
X4.5866Y-5.3799
X5.5709Y-2.9472
X5.5709Y-3.0472
X5.5709Y-3.1472
X5.5709Y-3.2472
X5.5709Y-3.3472
X5.5709Y-3.4472
X5.5709Y-3.5472
X5.5709Y-3.6472
X5.5709Y-3.7472
X5.5709Y-3.8472
M30
